# xmcd
# Track frame offsets:
# 150
# 13318
# 25120
# 35760
# 45305
# 54923
# 67093
# 76150
# 87715
# 99688
# 111110
# 121370
# 133865
# 146665
# 158153
# 170185
# 181603
# 195123
# 207848
# 219523
# 232940
# 247975
# 260893
# 273530
#
# Disc length: 3822 seconds
# Revision: 0
# Processed by: cddbd v1.4PL0 Copyright (c) Steve Scherf et al.
# Submitted via: VisiTrax 2.9.5.181 - For more info visit www.synapsa.com
#
DISCID=580eec18
DTITLE=Various Blues Artists - A Modern Blues Anthogy Ain't Times Hard - Dis
DTITLE=c 3
DYEAR=1994
DGENRE=
TTITLE0=Boogie Jake - Bad Luck And Trouble
TTITLE1=Rosco Gordon - No More Doggin'
TTITLE2=Jimmy Reed - Baby What You Want Me To Do
TTITLE3=Memphis Slim - Rockin' The House
TTITLE4=Rosco Gordon - Just A Little Bit
TTITLE5=Buster Brown - Fannie Mae
TTITLE6=Edgar Blanchard - Somebody's Doin' Me Wrong
TTITLE7=Junior Wells - Little By Little
TTITLE8=Lillian Offitt - Will My Man Be Home Tonight
TTITLE9=Sam Myers - You Don't Have To Go
TTITLE10=Junior Wells - Messin' With The Kidd
TTITLE11=Earl Hooker - Blue Guitar
TTITLE12=Christine Kitrell - Sittin' Here Drinkin'
TTITLE13=Willie Cobbs - You Can't Love Me
TTITLE14=Jimmy Reed - Bright Lights, Big City
TTITLE15=John Lee Hooker - Boom Boom
TTITLE16=Lightnin' Hopkins - Got Me A Louisiana Woman
TTITLE17=Elmore James - Shake Your Moneymaker
TTITLE18=Arthur Crudup - Mean Ole Frisco
TTITLE19=Homesick James - My Baby's Sweet
TTITLE20=Elmore James - It Hurts Me Too
TTITLE21=Jesse Fortune - Too Many Cooks
TTITLE22=Ricky Allen - Cut You A Loose
TTITLE23=Andrew Brown - You Better Stop
EXTD=Charly Blues CD DIG 3\nBoxed Set of 4
EXTT0=
EXTT1=
EXTT2=
EXTT3=
EXTT4=
EXTT5=
EXTT6=
EXTT7=
EXTT8=
EXTT9=
EXTT10=
EXTT11=
EXTT12=
EXTT13=
EXTT14=
EXTT15=
EXTT16=
EXTT17=
EXTT18=
EXTT19=
EXTT20=
EXTT21=
EXTT22=
EXTT23=
PLAYORDER=
